<svg width="152" height="37" viewBox="0 0 152 37" fill="none" xmlns="http://www.w3.org/2000/svg">
<path d="M28 6.528C28 6.25067 28.1387 6.112 28.416 6.112C28.7147 6.112 28.864 6.25067 28.864 6.528V23.584C28.864 23.8613 28.7147 24 28.416 24C28.1387 24 28 23.8613 28 23.584V6.528ZM39.941 21.312C39.7063 21.312 39.4823 21.3653 39.269 21.472C39.077 21.5787 38.981 21.7813 38.981 22.08C38.981 22.3147 39.0557 22.5067 39.205 22.656C39.3543 22.8053 39.5357 22.88 39.749 22.88C40.325 22.88 40.869 22.9973 41.381 23.232C41.893 23.4453 42.341 23.7333 42.725 24.096C43.109 24.48 43.4077 24.928 43.621 25.44C43.8557 25.952 43.973 26.496 43.973 27.072C43.973 27.648 43.8557 28.192 43.621 28.704C43.4077 29.216 43.109 29.664 42.725 30.048C42.341 30.432 41.893 30.7307 41.381 30.944C40.869 31.1787 40.325 31.296 39.749 31.296C39.173 31.296 38.629 31.1787 38.117 30.944C37.605 30.7307 37.157 30.432 36.773 30.048C36.389 29.664 36.0797 29.216 35.845 28.704C35.6317 28.192 35.525 27.648 35.525 27.072C35.525 26.7947 35.6743 26.656 35.973 26.656C36.2503 26.656 36.389 26.7947 36.389 27.072C36.389 27.5413 36.4743 27.9787 36.645 28.384C36.8157 28.7893 37.0503 29.1413 37.349 29.44C37.669 29.76 38.0317 30.0053 38.437 30.176C38.8423 30.3467 39.2797 30.432 39.749 30.432C40.2183 30.432 40.6557 30.3467 41.061 30.176C41.4663 30.0053 41.8183 29.76 42.117 29.44C42.4157 29.1413 42.6503 28.7893 42.821 28.384C43.013 27.9787 43.109 27.5413 43.109 27.072C43.109 26.6027 43.013 26.1653 42.821 25.76C42.6503 25.3547 42.4157 25.0027 42.117 24.704C41.8183 24.4053 41.4663 24.1707 41.061 24C40.6557 23.808 40.2183 23.712 39.749 23.712C39.301 23.712 38.917 23.5627 38.597 23.264C38.277 22.944 38.117 22.5493 38.117 22.08C38.117 21.9093 38.1383 21.7707 38.181 21.664C38.2237 21.5573 38.277 21.4507 38.341 21.344L37.829 21.28C37.1677 21.1947 36.549 20.992 35.973 20.672C35.397 20.352 34.8957 19.9573 34.469 19.488C34.0637 18.9973 33.733 18.4427 33.477 17.824C33.2423 17.2053 33.125 16.5653 33.125 15.904C33.125 15.1573 33.2637 14.4533 33.541 13.792C33.8397 13.1307 34.2343 12.5547 34.725 12.064C35.237 11.5733 35.813 11.1893 36.453 10.912C37.1143 10.6133 37.8183 10.464 38.565 10.464H40.965C41.6903 10.464 42.3837 10.6133 43.045 10.912C43.7063 11.1893 44.2823 11.5733 44.773 12.064C45.2637 12.5547 45.6477 13.1307 45.925 13.792C46.2237 14.4533 46.373 15.1573 46.373 15.904C46.373 16.6293 46.2343 17.3227 45.957 17.984C45.6797 18.6453 45.2957 19.2213 44.805 19.712C44.1223 20.3947 43.3863 20.832 42.597 21.024C41.829 21.216 40.9437 21.312 39.941 21.312ZM38.565 11.328C37.9463 11.328 37.3597 11.4453 36.805 11.68C36.2503 11.9147 35.7597 12.2453 35.333 12.672C34.9277 13.0773 34.597 13.5573 34.341 14.112C34.1063 14.6667 33.989 15.264 33.989 15.904C33.989 16.5227 34.1063 17.1093 34.341 17.664C34.597 18.2187 34.9277 18.7093 35.333 19.136C35.7597 19.5413 36.2503 19.8613 36.805 20.096C37.3597 20.3307 37.9463 20.448 38.565 20.448H40.965C41.5623 20.448 42.1383 20.3307 42.693 20.096C43.2477 19.8613 43.7383 19.5413 44.165 19.136C44.5917 18.7093 44.9223 18.2293 45.157 17.696C45.413 17.1413 45.541 16.544 45.541 15.904C45.541 15.264 45.413 14.6667 45.157 14.112C44.9223 13.5573 44.5917 13.0773 44.165 12.672C43.7383 12.2453 43.2477 11.9147 42.693 11.68C42.1383 11.4453 41.5623 11.328 40.965 11.328H38.565ZM57.8125 10.464C58.5592 10.464 59.2632 10.6133 59.9245 10.912C60.6072 11.2107 61.1938 11.616 61.6845 12.128C62.1965 12.6187 62.6018 13.2053 62.9005 13.888C63.1992 14.5493 63.3485 15.2533 63.3485 16V18.464C63.3485 19.2107 63.1992 19.9253 62.9005 20.608C62.6018 21.2693 62.1965 21.856 61.6845 22.368C61.1938 22.8587 60.6072 23.2533 59.9245 23.552C59.2632 23.8507 58.5592 24 57.8125 24H55.3485C54.6018 24 53.8872 23.8507 53.2045 23.552C52.5432 23.2533 51.9565 22.8587 51.4445 22.368C50.9538 21.856 50.5592 21.2693 50.2605 20.608C49.9618 19.9253 49.8125 19.2107 49.8125 18.464V16C49.8125 15.2533 49.9618 14.5493 50.2605 13.888C50.5592 13.2053 50.9538 12.6187 51.4445 12.128C51.9565 11.616 52.5432 11.2107 53.2045 10.912C53.8872 10.6133 54.6018 10.464 55.3485 10.464H57.8125ZM55.3485 11.328C54.7298 11.328 54.1325 11.456 53.5565 11.712C53.0018 11.9467 52.5112 12.2773 52.0845 12.704C51.6578 13.1093 51.3165 13.6 51.0605 14.176C50.8045 14.752 50.6765 15.36 50.6765 16V18.464C50.6765 19.0827 50.7938 19.68 51.0285 20.256C51.2845 20.8107 51.6258 21.3013 52.0525 21.728C52.4792 22.1547 52.9698 22.496 53.5245 22.752C54.1005 23.008 54.7085 23.136 55.3485 23.136H57.8125C58.4525 23.136 59.0498 23.0187 59.6045 22.784C60.1805 22.528 60.6818 22.1867 61.1085 21.76C61.5352 21.3333 61.8658 20.8427 62.1005 20.288C62.3565 19.712 62.4845 19.104 62.4845 18.464V16C62.4845 15.36 62.3565 14.7627 62.1005 14.208C61.8445 13.632 61.5032 13.1307 61.0765 12.704C60.6498 12.2773 60.1485 11.9467 59.5725 11.712C59.0178 11.456 58.4312 11.328 57.8125 11.328H55.3485Z" fill="#E2ECF0"/>
<path d="M77.4083 23.136C77.6856 23.136 77.8243 23.2853 77.8243 23.584C77.8243 23.8613 77.6856 24 77.4083 24H72.1283C71.3816 24 70.6669 23.8613 69.9843 23.584C69.3229 23.2853 68.7469 22.8907 68.2563 22.4C67.7656 21.9093 67.3709 21.3333 67.0723 20.672C66.7949 19.9893 66.6562 19.2747 66.6562 18.528V6.528C66.6562 6.25067 66.7949 6.112 67.0723 6.112C67.3709 6.112 67.5203 6.25067 67.5203 6.528V18.528C67.5203 19.168 67.6376 19.7653 67.8723 20.32C68.1283 20.8747 68.4589 21.3653 68.8643 21.792C69.2909 22.1973 69.7816 22.528 70.3363 22.784C70.8909 23.0187 71.4883 23.136 72.1283 23.136H76.9923H77.4083ZM81.28 20.352C81.6427 21.2053 82.2187 21.888 83.008 22.4C83.7973 22.8907 84.64 23.136 85.536 23.136H91.488C91.7653 23.136 91.904 23.2747 91.904 23.552C91.904 23.8507 91.7653 24 91.488 24H85.536C84.7253 24 83.9787 23.84 83.296 23.52C82.6347 23.2 82.0587 22.784 81.568 22.272C81.0773 21.7387 80.6933 21.12 80.416 20.416C80.1387 19.712 80 18.976 80 18.208V16C80 15.2533 80.1493 14.5493 80.448 13.888C80.7467 13.2053 81.1413 12.6187 81.632 12.128C82.144 11.616 82.7307 11.2107 83.392 10.912C84.0747 10.6133 84.7893 10.464 85.536 10.464H88C88.7467 10.464 89.4507 10.6133 90.112 10.912C90.7947 11.2107 91.3813 11.616 91.872 12.128C92.384 12.6187 92.7893 13.2053 93.088 13.888C93.3867 14.5493 93.536 15.2533 93.536 16V18.24C93.536 18.4747 93.4613 18.6667 93.312 18.816C93.1627 18.9653 92.9813 19.04 92.768 19.04H80.704L81.28 20.352ZM92.672 16C92.672 15.36 92.544 14.7627 92.288 14.208C92.0533 13.632 91.7227 13.1307 91.296 12.704C90.8693 12.2773 90.368 11.9467 89.792 11.712C89.2373 11.456 88.64 11.328 88 11.328H85.536C84.9173 11.328 84.32 11.456 83.744 11.712C83.1893 11.9467 82.6987 12.2773 82.272 12.704C81.8453 13.1307 81.504 13.632 81.248 14.208C80.992 14.7627 80.864 15.36 80.864 16V18.176H92.672V16ZM104.076 10.464C104.822 10.464 105.526 10.6133 106.188 10.912C106.87 11.1893 107.468 11.584 107.98 12.096C108.492 12.5867 108.897 13.1733 109.196 13.856C109.494 14.5173 109.644 15.232 109.644 16V18.464C109.644 19.232 109.494 19.9573 109.196 20.64C108.897 21.3013 108.492 21.888 107.98 22.4C107.468 22.8907 106.87 23.2853 106.188 23.584C105.526 23.8613 104.822 24 104.076 24H100.524C99.9264 24 99.3611 23.8933 98.8278 23.68C98.3158 23.4453 97.8571 23.136 97.4518 22.752C97.0678 22.3467 96.7691 21.888 96.5557 21.376C96.3211 20.8427 96.2037 20.2773 96.2037 19.68C96.2037 19.0827 96.3211 18.528 96.5557 18.016C96.7691 17.4827 97.0678 17.024 97.4518 16.64C97.8571 16.256 98.3158 15.9573 98.8278 15.744C99.3611 15.5093 99.9264 15.392 100.524 15.392H108.748L108.62 14.88C108.492 14.368 108.278 13.8987 107.98 13.472C107.702 13.024 107.361 12.6507 106.956 12.352C106.55 12.032 106.102 11.7867 105.612 11.616C105.121 11.424 104.609 11.328 104.076 11.328H98.4118C98.1344 11.328 97.9958 11.1893 97.9958 10.912C97.9958 10.6133 98.1344 10.464 98.4118 10.464H98.8278H104.076ZM104.076 23.136C104.716 23.136 105.324 23.008 105.9 22.752C106.476 22.496 106.966 22.1547 107.372 21.728C107.798 21.3013 108.129 20.8107 108.364 20.256C108.62 19.68 108.748 19.0827 108.748 18.464V16.256H100.524C100.033 16.256 99.5744 16.352 99.1478 16.544C98.7424 16.7147 98.3798 16.96 98.0598 17.28C97.7611 17.5787 97.5158 17.9413 97.3238 18.368C97.1531 18.7733 97.0678 19.2107 97.0678 19.68C97.0678 20.1707 97.1531 20.6293 97.3238 21.056C97.5158 21.4613 97.7611 21.824 98.0598 22.144C98.3798 22.4427 98.7424 22.688 99.1478 22.88C99.5744 23.0507 100.033 23.136 100.524 23.136H102.444H104.076ZM112.25 15.936C112.271 15.1893 112.431 14.4853 112.73 13.824C113.029 13.1627 113.423 12.5867 113.914 12.096C114.405 11.584 114.981 11.1893 115.642 10.912C116.325 10.6133 117.039 10.464 117.786 10.464H119.514C120.261 10.464 120.965 10.6027 121.626 10.88C122.309 11.1573 122.906 11.5627 123.418 12.096C123.503 12.16 123.546 12.256 123.546 12.384C123.546 12.6827 123.407 12.832 123.13 12.832C123.002 12.832 122.895 12.7893 122.81 12.704C122.362 12.2773 121.85 11.9467 121.274 11.712C120.719 11.456 120.133 11.328 119.514 11.328H117.786C117.167 11.328 116.581 11.456 116.026 11.712C115.471 11.9467 114.981 12.2773 114.554 12.704C114.127 13.1093 113.786 13.5893 113.53 14.144C113.274 14.6987 113.135 15.2853 113.114 15.904V23.552C113.114 23.8507 112.975 24 112.698 24C112.399 24 112.25 23.8507 112.25 23.552V15.968V15.936ZM139.317 23.552C139.317 23.8507 139.168 24 138.869 24C138.592 24 138.453 23.8507 138.453 23.552V16C138.453 15.36 138.325 14.7627 138.069 14.208C137.813 13.632 137.472 13.1307 137.045 12.704C136.619 12.2773 136.117 11.9467 135.541 11.712C134.987 11.456 134.4 11.328 133.781 11.328H131.317C130.699 11.328 130.101 11.456 129.525 11.712C128.971 11.9467 128.48 12.2773 128.053 12.704C127.648 13.1093 127.317 13.5893 127.061 14.144C126.805 14.6987 126.667 15.2853 126.645 15.904V23.552C126.645 23.8507 126.507 24 126.229 24C125.931 24 125.781 23.8507 125.781 23.552V15.936C125.803 15.1893 125.963 14.4853 126.261 13.824C126.56 13.1627 126.955 12.5867 127.445 12.096C127.936 11.584 128.512 11.1893 129.173 10.912C129.856 10.6133 130.571 10.464 131.317 10.464H133.781C134.528 10.464 135.232 10.6133 135.893 10.912C136.576 11.2107 137.163 11.6053 137.653 12.096C138.165 12.5867 138.571 13.1733 138.869 13.856C139.168 14.5173 139.317 15.2107 139.317 15.936V15.968V23.552Z" fill="#2EBCD2"/>
<path d="M8.5 23.5357H21.5" stroke="#EEEEEE" stroke-width="3"/>
<path d="M2 36L15 7L28 36" stroke="#2EBCD2" stroke-width="3"/>
</svg>
